<?xml version="1.0" encoding="UTF-8" standalone="no"?>
<svg
   xmlns:dc="http://purl.org/dc/elements/1.1/"
   xmlns:cc="http://creativecommons.org/ns#"
   xmlns:rdf="http://www.w3.org/1999/02/22-rdf-syntax-ns#"
   xmlns:svg="http://www.w3.org/2000/svg"
   xmlns="http://www.w3.org/2000/svg"
   xmlns:sodipodi="http://sodipodi.sourceforge.net/DTD/sodipodi-0.dtd"
   xmlns:inkscape="http://www.inkscape.org/namespaces/inkscape"
   width="36.191219mm"
   height="5.932766mm"
   viewBox="0 0 36.191219 5.932766"
   version="1.1"
   id="svg8"
   inkscape:version="1.0.1 (3bc2e813f5, 2020-09-07)"
   sodipodi:docname="Zeichnung.svg">
   <rect width="100%" height="100%" fill="white" /> 
  <defs
     id="defs2">
    <inkscape:path-effect
       effect="powerstroke"
       id="path-effect1034"
       is_visible="true"
       lpeversion="1"
       offset_points="1.2071629,0.12277694"
       sort_points="true"
       interpolator_type="CentripetalCatmullRom"
       interpolator_beta="0.75"
       start_linecap_type="round"
       linejoin_type="spiro"
       miter_limit="4"
       scale_width="1"
       end_linecap_type="round" />
    <inkscape:path-effect
       effect="simplify"
       id="path-effect1032"
       is_visible="true"
       lpeversion="1"
       steps="1"
       threshold="0.0034615385"
       smooth_angles="0"
       helper_size="0"
       simplify_individual_paths="false"
       simplify_just_coalesce="false"
       step="1" />
    <inkscape:path-effect
       effect="powerstroke"
       id="path-effect1027"
       is_visible="true"
       lpeversion="1"
       offset_points="0.9133955,0.12277694"
       sort_points="true"
       interpolator_type="CentripetalCatmullRom"
       interpolator_beta="0.75"
       start_linecap_type="round"
       linejoin_type="spiro"
       miter_limit="4"
       scale_width="1"
       end_linecap_type="round" />
    <inkscape:path-effect
       effect="simplify"
       id="path-effect1025"
       is_visible="true"
       lpeversion="1"
       steps="1"
       threshold="0.0034615385"
       smooth_angles="0"
       helper_size="0"
       simplify_individual_paths="false"
       simplify_just_coalesce="false"
       step="1" />
    <inkscape:path-effect
       effect="powerstroke"
       id="path-effect1020"
       is_visible="true"
       lpeversion="1"
       offset_points="0.92250149,0.34726562"
       sort_points="true"
       interpolator_type="CentripetalCatmullRom"
       interpolator_beta="0.75"
       start_linecap_type="round"
       linejoin_type="spiro"
       miter_limit="4"
       scale_width="1"
       end_linecap_type="round" />
    <inkscape:path-effect
       effect="simplify"
       id="path-effect1018"
       is_visible="true"
       lpeversion="1"
       steps="1"
       threshold="0.0034615385"
       smooth_angles="0"
       helper_size="0"
       simplify_individual_paths="false"
       simplify_just_coalesce="false"
       step="1" />
    <inkscape:path-effect
       effect="powerstroke"
       id="path-effect1013"
       is_visible="true"
       lpeversion="1"
       offset_points="0.65582254,0.34726562"
       sort_points="true"
       interpolator_type="CentripetalCatmullRom"
       interpolator_beta="0.75"
       start_linecap_type="round"
       linejoin_type="spiro"
       miter_limit="4"
       scale_width="1"
       end_linecap_type="round" />
    <inkscape:path-effect
       effect="simplify"
       id="path-effect1011"
       is_visible="true"
       lpeversion="1"
       steps="1"
       threshold="0.0034615385"
       smooth_angles="0"
       helper_size="0"
       simplify_individual_paths="false"
       simplify_just_coalesce="false"
       step="1" />
    <inkscape:path-effect
       effect="powerstroke"
       id="path-effect1006"
       is_visible="true"
       lpeversion="1"
       offset_points="0.95663237,0.34726562"
       sort_points="true"
       interpolator_type="CentripetalCatmullRom"
       interpolator_beta="0.75"
       start_linecap_type="round"
       linejoin_type="spiro"
       miter_limit="4"
       scale_width="1"
       end_linecap_type="round" />
    <inkscape:path-effect
       effect="simplify"
       id="path-effect1004"
       is_visible="true"
       lpeversion="1"
       steps="1"
       threshold="0.0034615385"
       smooth_angles="0"
       helper_size="0"
       simplify_individual_paths="false"
       simplify_just_coalesce="false"
       step="1" />
    <inkscape:path-effect
       effect="powerstroke"
       id="path-effect999"
       is_visible="true"
       lpeversion="1"
       offset_points="1.3007638,0.17363281"
       sort_points="true"
       interpolator_type="CentripetalCatmullRom"
       interpolator_beta="0.75"
       start_linecap_type="round"
       linejoin_type="spiro"
       miter_limit="4"
       scale_width="1"
       end_linecap_type="round" />
    <inkscape:path-effect
       effect="simplify"
       id="path-effect997"
       is_visible="true"
       lpeversion="1"
       steps="1"
       threshold="0.0034615385"
       smooth_angles="0"
       helper_size="0"
       simplify_individual_paths="false"
       simplify_just_coalesce="false"
       step="1" />
    <inkscape:path-effect
       effect="powerstroke"
       id="path-effect992"
       is_visible="true"
       lpeversion="1"
       offset_points="0.75639675,0.12277694"
       sort_points="true"
       interpolator_type="CentripetalCatmullRom"
       interpolator_beta="0.75"
       start_linecap_type="round"
       linejoin_type="spiro"
       miter_limit="4"
       scale_width="1"
       end_linecap_type="round" />
    <inkscape:path-effect
       effect="simplify"
       id="path-effect990"
       is_visible="true"
       lpeversion="1"
       steps="1"
       threshold="0.0034615385"
       smooth_angles="0"
       helper_size="0"
       simplify_individual_paths="false"
       simplify_just_coalesce="false"
       step="1" />
    <inkscape:path-effect
       effect="powerstroke"
       id="path-effect985"
       is_visible="true"
       lpeversion="1"
       offset_points="1.2802919,0.12277694"
       sort_points="true"
       interpolator_type="CentripetalCatmullRom"
       interpolator_beta="0.75"
       start_linecap_type="round"
       linejoin_type="spiro"
       miter_limit="4"
       scale_width="1"
       end_linecap_type="round" />
    <inkscape:path-effect
       effect="simplify"
       id="path-effect983"
       is_visible="true"
       lpeversion="1"
       steps="1"
       threshold="0.0034615385"
       smooth_angles="0"
       helper_size="0"
       simplify_individual_paths="false"
       simplify_just_coalesce="false"
       step="1" />
    <inkscape:path-effect
       effect="powerstroke"
       id="path-effect978"
       is_visible="true"
       lpeversion="1"
       offset_points="0.44102894,0.12277694"
       sort_points="true"
       interpolator_type="CentripetalCatmullRom"
       interpolator_beta="0.75"
       start_linecap_type="round"
       linejoin_type="spiro"
       miter_limit="4"
       scale_width="1"
       end_linecap_type="round" />
    <inkscape:path-effect
       effect="simplify"
       id="path-effect976"
       is_visible="true"
       lpeversion="1"
       steps="1"
       threshold="0.0034615385"
       smooth_angles="0"
       helper_size="0"
       simplify_individual_paths="false"
       simplify_just_coalesce="false"
       step="1" />
    <inkscape:path-effect
       effect="powerstroke"
       id="path-effect971"
       is_visible="true"
       lpeversion="1"
       offset_points="0.68883871,0.12277694"
       sort_points="true"
       interpolator_type="CentripetalCatmullRom"
       interpolator_beta="0.75"
       start_linecap_type="round"
       linejoin_type="spiro"
       miter_limit="4"
       scale_width="1"
       end_linecap_type="round" />
    <inkscape:path-effect
       effect="simplify"
       id="path-effect969"
       is_visible="true"
       lpeversion="1"
       steps="1"
       threshold="0.0034615385"
       smooth_angles="0"
       helper_size="0"
       simplify_individual_paths="false"
       simplify_just_coalesce="false"
       step="1" />
    <inkscape:path-effect
       effect="powerstroke"
       id="path-effect964"
       is_visible="true"
       lpeversion="1"
       offset_points="1.4905055,0.12277694"
       sort_points="true"
       interpolator_type="CentripetalCatmullRom"
       interpolator_beta="0.75"
       start_linecap_type="round"
       linejoin_type="spiro"
       miter_limit="4"
       scale_width="1"
       end_linecap_type="round" />
    <inkscape:path-effect
       effect="simplify"
       id="path-effect962"
       is_visible="true"
       lpeversion="1"
       steps="1"
       threshold="0.0034615385"
       smooth_angles="0"
       helper_size="0"
       simplify_individual_paths="false"
       simplify_just_coalesce="false"
       step="1" />
  </defs>
  <sodipodi:namedview
     id="base"
     pagecolor="#ffffff"
     bordercolor="#666666"
     borderopacity="1.0"
     inkscape:pageopacity="0.0"
     inkscape:pageshadow="2"
     inkscape:zoom="4"
     inkscape:cx="106.37876"
     inkscape:cy="23.92463"
     inkscape:document-units="mm"
     inkscape:current-layer="layer1"
     inkscape:document-rotation="0"
     showgrid="false"
     inkscape:window-width="1920"
     inkscape:window-height="1017"
     inkscape:window-x="1912"
     inkscape:window-y="-8"
     inkscape:window-maximized="1"
     fit-margin-top="0"
     fit-margin-left="0"
     fit-margin-right="0"
     fit-margin-bottom="0" />
  <metadata
     id="metadata5">
    <rdf:RDF>
      <cc:Work
         rdf:about="">
        <dc:format>image/svg+xml</dc:format>
        <dc:type
           rdf:resource="http://purl.org/dc/dcmitype/StillImage" />
        <dc:title></dc:title>
      </cc:Work>
    </rdf:RDF>
  </metadata>
  <g
     inkscape:label="Ebene 1"
     inkscape:groupmode="layer"
     id="layer1"
     transform="translate(-30.710565,-76.900742)">
    <circle
       id="path833"
       style="fill:#ffffff;stroke:#c6b16f;stroke-width:0.264583"
       cx="19.182291"
       cy="79.469498"
       r="0.047199775" />
    <path
       style="fill:none;stroke:#000000;stroke-width:0.264583px;stroke-linecap:butt;stroke-linejoin:miter;stroke-opacity:1"
       d="M 30.710565,81.359374 H 66.901784"
       id="path837" />
    <path
       style="fill:none;stroke:#000000;stroke-width:0.264583px;stroke-linecap:butt;stroke-linejoin:miter;stroke-opacity:1"
       d="m 38.259632,79.886861 v 2.899873"
       id="path839" />
    <path
       style="fill:none;stroke:#000000;stroke-width:0.264583px;stroke-linecap:butt;stroke-linejoin:miter;stroke-opacity:1"
       d="m 58.652298,79.88686 v 2.946648"
       id="path843" />
    <text
       xml:space="preserve"
       style="font-style:normal;font-weight:normal;font-size:2.82222px;line-height:1.25;font-family:sans-serif;fill:#000000;fill-opacity:1;stroke:none;stroke-width:0.264583"
       x="37.27742"
       y="79.044968"
       id="text847"><tspan
         sodipodi:role="line"
         id="tspan845"
         x="37.27742"
         y="79.044968"
         style="font-size:2.82222px;stroke-width:0.264583">b</tspan></text>
    <path
       d="m 33.533233,80.535234 c -0.0049,0.0062 -0.01579,0.01738 -0.03993,0.04301 -0.01393,0.01479 -0.04037,0.04326 -0.06032,0.08048 -0.0023,0.0043 -0.0044,0.0088 -0.0062,0.01342 -0.0074,0.01899 -0.0132,0.03797 -0.01801,0.05678 -0.0033,0.01307 -0.0063,0.02638 -0.0091,0.04059 -0.0052,0.02586 -0.0095,0.05275 -0.01465,0.07658 -0.03532,0.202737 -0.05948,0.43762 -0.04589,0.688297 0.0068,0.09895 0.01878,0.219731 0.0624,0.335319 0.0498,0.110058 0.101368,0.219099 0.166797,0.322097 0.0048,0.007 0.0049,0.0071 0.0071,0.01028 0.0016,0.0024 0.0043,0.0063 0.0072,0.01034 0.003,0.0042 0.0067,0.0093 0.01102,0.01468 0.0042,0.0053 0.0099,0.01196 0.01672,0.01874 0.0065,0.0064 0.01688,0.01585 0.03093,0.02423 0.0073,0.0044 0.01694,0.0092 0.02864,0.01301 0.01188,0.0038 0.02678,0.0068 0.04389,0.0065 0.01763,-3.89e-4 0.03563,-0.0043 0.05271,-0.01238 0.01695,-0.008 0.0303,-0.01866 0.04042,-0.02948 0.01,-0.01068 0.01691,-0.02155 0.02173,-0.03074 0.0049,-0.0093 0.0082,-0.01811 0.0106,-0.02564 0.0027,-0.0086 0.0045,-0.01745 0.0052,-0.02642 1.54e-4,-0.0018 2.99e-4,-0.0035 4.28e-4,-0.005 4.79e-4,-0.0099 5.29e-4,-0.01194 5.62e-4,-0.01323 a 0.12277694,0.12277694 90 0 0 -0.245476,-0.0062 c -3.2e-5,0.0013 -8.3e-5,0.0033 -1.45e-4,0.0057 2.89e-4,-0.006 1.43e-4,-0.0043 -1.1e-5,-0.0025 l 0.0052,-0.02642 c 9.85e-4,-0.0031 0.0028,-0.0082 0.006,-0.01429 0.0032,-0.006 0.0083,-0.01437 0.01643,-0.02304 0.0083,-0.0088 0.01963,-0.01806 0.03451,-0.02506 0.01503,-0.0071 0.0309,-0.01054 0.04631,-0.01088 0.01491,-3.29e-4 0.02754,0.0023 0.03709,0.0054 0.0094,0.003 0.01662,0.0068 0.02154,0.0097 0.0093,0.0055 0.01474,0.01085 0.01627,0.01237 0.0022,0.0022 0.0025,0.0027 0.0021,0.0022 -0.0041,-0.0056 -0.0055,-0.0076 -0.0075,-0.01053 -0.0014,-0.0021 -0.0045,-0.0066 -0.0076,-0.01079 -0.05026,-0.07978 -0.09588,-0.175318 -0.142153,-0.276965 -0.02693,-0.07212 -0.03741,-0.162048 -0.04393,-0.256228 -0.01221,-0.225393 0.0096,-0.441034 0.04177,-0.626178 0.0063,-0.02873 0.01043,-0.05517 0.01448,-0.07545 0.0022,-0.01112 0.0042,-0.02004 0.0062,-0.02789 0.0019,-0.0076 0.0039,-0.01426 0.0059,-0.02022 0.0039,-0.0056 0.0099,-0.01282 0.01945,-0.02293 0.02288,-0.02429 0.03492,-0.03542 0.05308,-0.05816 a 0.12277694,0.12277694 90 0 0 -0.19191,-0.153192 z"
       id="path-1"
       inkscape:path-effect="#path-effect983;#path-effect985"
       inkscape:original-d="m 33.629188,80.61183 c -0.0963,0.110053 -0.08684,0.07174 -0.11693,0.222168 -0.0523,0.261513 -0.09027,0.726439 0,0.982215 0.01076,0.0305 0.210475,0.458716 0.210475,0.327406"
       style="fill:#000000;fill-rule:nonzero;stroke:none;stroke-width:1px;stroke-linecap:butt;stroke-linejoin:miter;stroke-opacity:1" />
    <path
       d="m 43.065512,80.483179 c 0.03852,0.05084 0.101098,0.145878 0.142245,0.290842 0.01501,0.05288 0.02617,0.108889 0.03289,0.167407 0.0054,0.04676 0.0087,0.101641 0.0069,0.163062 -0.0045,0.163693 -0.03808,0.347686 -0.116518,0.532996 -0.04327,0.09591 -0.102573,0.192955 -0.155927,0.281224 -0.08654,0.143182 -0.130177,0.221702 -0.169723,0.311926 a 0.12277694,0.12277694 90 0 0 0.2249,0.09857 c 0.03306,-0.07543 0.07014,-0.143126 0.154971,-0.283478 0.0512,-0.08471 0.119075,-0.195243 0.170774,-0.30993 0.09247,-0.218367 0.131656,-0.432808 0.136979,-0.62438 0.0021,-0.07423 -0.0018,-0.140883 -0.0084,-0.198016 -0.0082,-0.07146 -0.02191,-0.140531 -0.04062,-0.206434 -0.05166,-0.181994 -0.131315,-0.3042 -0.182743,-0.372079 a 0.12277694,0.12277694 90 0 0 -0.195724,0.148286 z"
       id="path-1-1"
       inkscape:path-effect="#path-effect990;#path-effect992"
       inkscape:original-d="m 43.163374,80.409036 c 0.260763,0.347382 0.251208,0.819872 0.105238,1.216077 -0.07888,0.21409 -0.251817,0.428582 -0.350792,0.65481"
       style="fill:#000000;fill-rule:nonzero;stroke:none;stroke-width:1px;stroke-linecap:butt;stroke-linejoin:miter;stroke-opacity:1" />
    <path
       d="m 53.416339,79.728161 c -0.04501,0.07083 -0.105608,0.181108 -0.159936,0.347163 -0.03056,0.0934 -0.05498,0.191207 -0.07645,0.296152 -0.004,0.01952 -0.008,0.0399 -0.01211,0.06144 -0.05013,0.285083 -0.08688,0.666718 -0.03987,1.09714 0.02105,0.190398 0.06513,0.381864 0.156025,0.556369 0.06625,0.13281 0.149734,0.257367 0.216412,0.354698 0.09774,0.142674 0.174341,0.254518 0.218355,0.327721 a 0.12277694,0.12277694 90 0 0 0.210444,-0.126532 c -0.04849,-0.08065 -0.130801,-0.200678 -0.226222,-0.339967 -0.06643,-0.09697 -0.141286,-0.209317 -0.200239,-0.327458 -0.07312,-0.140413 -0.111658,-0.299476 -0.13069,-0.471649 -0.04383,-0.401393 -0.0096,-0.75897 0.03733,-1.026135 0.0036,-0.01881 0.0074,-0.03807 0.01114,-0.0564 0.02018,-0.09864 0.04241,-0.186929 0.06926,-0.269024 0.04712,-0.144015 0.09823,-0.235833 0.133809,-0.291827 a 0.12277694,0.12277694 90 0 0 -0.207254,-0.13169 z"
       id="path-1-5"
       inkscape:path-effect="#path-effect1025;#path-effect1027"
       inkscape:original-d="m 53.519966,79.794006 c -0.300192,0.45887 -0.356024,1.476727 -0.222168,1.987817 0.09044,0.345318 0.3464,0.624104 0.526187,0.92375"
       style="fill:#000000;fill-rule:nonzero;stroke:none;stroke-width:1px;stroke-linecap:butt;stroke-linejoin:miter;stroke-opacity:1" />
    <path
       d="m 63.611498,80.051094 c 0.01409,0.02194 0.03971,0.05696 0.06081,0.09039 0.01513,0.02396 0.0257,0.04469 0.03091,0.06468 0.01295,0.04203 0.02234,0.07969 0.02994,0.118598 0.0095,0.04868 0.01711,0.103705 0.02179,0.167363 0.0067,0.09082 0.0067,0.186758 0.0023,0.299958 -0.01576,0.30248 -0.06665,0.623774 -0.165577,0.945897 -0.04454,0.145087 -0.100514,0.271818 -0.171937,0.381147 -0.04254,0.06831 -0.07823,0.12491 -0.111711,0.188389 -0.04659,0.08834 -0.07177,0.159225 -0.08672,0.220699 a 0.12277694,0.12277694 90 0 0 0.2386,0.05802 c 0.0099,-0.04053 0.02752,-0.09251 0.06532,-0.164176 0.02855,-0.05415 0.05911,-0.102727 0.101539,-0.170918 0.08535,-0.130601 0.150036,-0.27949 0.199645,-0.441085 0.105405,-0.343211 0.159354,-0.684605 0.176138,-1.006896 0.0046,-0.119826 0.0049,-0.225713 -0.0027,-0.329049 -0.0054,-0.07281 -0.01418,-0.137578 -0.02569,-0.196448 -0.0092,-0.04697 -0.02069,-0.09334 -0.03492,-0.139019 -0.0131,-0.05074 -0.03931,-0.09659 -0.0593,-0.128259 -0.03016,-0.04776 -0.05163,-0.07611 -0.06181,-0.09196 a 0.12277694,0.12277694 90 0 0 -0.206634,0.132662 z"
       id="path-1-9"
       inkscape:path-effect="#path-effect1032;#path-effect1034"
       inkscape:original-d="m 63.714815,79.984763 c 0.03118,0.05067 0.07207,0.09653 0.09354,0.152009 0.175754,0.454032 0.01305,1.43423 -0.187089,1.870887 -0.08871,0.193557 -0.227564,0.337298 -0.280633,0.549573"
       style="fill:#000000;fill-rule:nonzero;stroke:none;stroke-width:1px;stroke-linecap:butt;stroke-linejoin:miter;stroke-opacity:1" />
    <text
       xml:space="preserve"
       style="font-style:normal;font-weight:normal;font-size:2.82223px;line-height:1.25;font-family:sans-serif;fill:#000000;fill-opacity:1;stroke:none;stroke-width:0.264583"
       x="57.672962"
       y="78.970551"
       id="text847-9"><tspan
         sodipodi:role="line"
         id="tspan845-6"
         x="57.672962"
         y="78.970551"
         style="font-size:2.82223px;stroke-width:0.264583">a</tspan></text>
  </g>
</svg>
